<svg viewBox="0 0 24 24" fill="none" xmlns="http://www.w3.org/2000/svg">
  <path d="M6.763 12.616c-.186 0-.307-.017-.409-.05v2.402c.102.033.223.05.409.05.409 0 .716-.1.92-.3.204-.2.307-.466.307-.8 0-.333-.103-.6-.307-.8-.204-.2-.511-.3-.92-.3zm-.409-1.2c.102-.033.223-.05.409-.05.409 0 .716.1.92.3.204.2.307.466.307.8 0 .333-.103.6-.307.8-.204.2-.511.3-.92.3-.186 0-.307-.017-.409-.05v-2.2z" fill="#FF9900"/>
  <path d="M12 2C6.48 2 2 6.48 2 12s4.48 10 10 10 10-4.48 10-10S17.52 2 12 2zm-1 17.93c-3.94-.49-7-3.85-7-7.93 0-.62.08-1.21.21-1.79L9 15v1c0 1.1.9 2 2 2v1.93zm6.9-2.54c-.26-.81-1-1.39-1.9-1.39h-1v-3c0-.55-.45-1-1-1H8v-2h2c.55 0 1-.45 1-1V7h2c1.1 0 2-.9 2-2v-.41c2.93 1.19 5 4.06 5 7.41 0 2.08-.8 3.97-2.1 5.39z" fill="#FF9900"/>
</svg>

