<svg viewBox="0 0 24 24" fill="none" xmlns="http://www.w3.org/2000/svg">
  <path d="M13.983 11.078h2.119a.16.16 0 0 0 .158-.137l.318-2.285A.16.16 0 0 0 16.42 8.5h-2.437v2.578zm-3.376 0h2.12v-2.578H9.88a.16.16 0 0 0-.158.137l-.318 2.285a.16.16 0 0 0 .158.156h.158zm-3.197 0h2.12v-2.578H6.683a.16.16 0 0 0-.158.137l-.318 2.285a.16.16 0 0 0 .158.156h.158zm-3.197 0h2.12v-2.578H3.486a.16.16 0 0 0-.158.137l-.318 2.285a.16.16 0 0 0 .158.156h.158zm6.394-3.197h2.12V5.303h-2.437a.16.16 0 0 0-.158.137l-.318 2.285a.16.16 0 0 0 .158.156h.158zm-3.197 0h2.12V5.303H6.683a.16.16 0 0 0-.158.137l-.318 2.285a.16.16 0 0 0 .158.156h.158zm-3.197 0h2.12V5.303H3.486a.16.16 0 0 0-.158.137l-.318 2.285a.16.16 0 0 0 .158.156h.158zm6.394-3.197h2.12V2.106h-2.437a.16.16 0 0 0-.158.137l-.318 2.285a.16.16 0 0 0 .158.156h.158zm-3.197 0h2.12V2.106H6.683a.16.16 0 0 0-.158.137l-.318 2.285a.16.16 0 0 0 .158.156h.158zm-3.197 0h2.12V2.106H3.486a.16.16 0 0 0-.158.137l-.318 2.285a.16.16 0 0 0 .158.156h.158z" fill="#2496ED"/>
</svg>

