<svg viewBox="0 0 24 24" fill="none" xmlns="http://www.w3.org/2000/svg">
  <path d="M23.546 10.93L13.067.452c-.604-.603-1.582-.603-2.186 0L8.708 2.627l2.76 2.76c.645-.215 1.379-.07 1.889.441.516.515.658 1.258.438 1.9l2.658 2.66c.645-.223 1.387-.078 1.9.435.721.72.721 1.884 0 2.604-.719.719-1.881.719-2.6 0-.539-.541-.674-1.337-.404-1.996L12.86 8.955v6.525c.176.086.342.203.488.348.713.721.713 1.883 0 2.6-.719.721-1.889.721-2.609 0-.719-.719-.719-1.879 0-2.598.182-.18.387-.316.605-.406V8.835c-.218-.091-.423-.222-.605-.404-.719-.719-.719-1.879 0-2.598.719-.719 1.881-.719 2.6 0 .146.145.312.262.488.348l2.658-2.66c-.223-.645-.078-1.387.435-1.9.515-.516 1.258-.658 1.9-.438l2.76-2.76L23.546 10.93c.603.604.603 1.582 0 2.186z" fill="#F05032"/>
</svg>

