<svg viewBox="0 0 24 24" fill="none" xmlns="http://www.w3.org/2000/svg">
  <path d="M11.572 0c-.176 0-.31.001-.358.006a6.025 6.025 0 0 0-5.08 5.08C6.001 5.134 6 5.268 6 5.444v13.112c0 .176.001.31.006.358a6.025 6.025 0 0 0 5.08 5.08c.048.005.182.006.358.006h.858c.176 0 .31-.001.358-.006a6.025 6.025 0 0 0 5.08-5.08c.005-.048.006-.182.006-.358V5.444c0-.176-.001-.31-.006-.358a6.025 6.025 0 0 0-5.08-5.08C12.74.001 12.606 0 12.43 0h-.858z" fill="#000000"/>
  <path d="M12.43 0c-.176 0-.31.001-.358.006a6.025 6.025 0 0 0-5.08 5.08C6.001 5.134 6 5.268 6 5.444v13.112c0 .176.001.31.006.358a6.025 6.025 0 0 0 5.08 5.08c.048.005.182.006.358.006h.858c.176 0 .31-.001.358-.006a6.025 6.025 0 0 0 5.08-5.08c.005-.048.006-.182.006-.358V5.444c0-.176-.001-.31-.006-.358a6.025 6.025 0 0 0-5.08-5.08C12.74.001 12.606 0 12.43 0h-.858z" fill="#ffffff"/>
  <path d="M12.43 0c-.176 0-.31.001-.358.006a6.025 6.025 0 0 0-5.08 5.08C6.001 5.134 6 5.268 6 5.444v13.112c0 .176.001.31.006.358a6.025 6.025 0 0 0 5.08 5.08c.048.005.182.006.358.006h.858c.176 0 .31-.001.358-.006a6.025 6.025 0 0 0 5.08-5.08c.005-.048.006-.182.006-.358V5.444c0-.176-.001-.31-.006-.358a6.025 6.025 0 0 0-5.08-5.08C12.74.001 12.606 0 12.43 0h-.858z" fill="#000000"/>
</svg>

