<svg viewBox="0 0 24 24" fill="none" xmlns="http://www.w3.org/2000/svg">
  <path d="M21.5 4.5c-.3-.3-.7-.5-1.2-.5H3.7c-.5 0-.9.2-1.2.5-.3.3-.5.7-.5 1.2v12.6c0 .5.2.9.5 1.2.3.3.7.5 1.2.5h16.6c.5 0 .9-.2 1.2-.5.3-.3.5-.7.5-1.2V5.7c0-.5-.2-.9-.5-1.2z" fill="#003B57"/>
  <path d="M3.7 4h16.6c.5 0 .9.2 1.2.5.3.3.5.7.5 1.2v12.6c0 .5-.2.9-.5 1.2-.3.3-.7.5-1.2.5H3.7c-.5 0-.9-.2-1.2-.5-.3-.3-.5-.7-.5-1.2V5.7c0-.5.2-.9.5-1.2.3-.3.7-.5 1.2-.5z" fill="#003B57"/>
  <path d="M6 8h12v2H6V8zm0 3h12v2H6v-2zm0 3h8v2H6v-2z" fill="#ffffff"/>
</svg>

